{
  "accessors": [
    {
      "bufferView": 2,
      "componentType": 5126,
      "count": 65532,
      "max": [
        0.6497228741645813,
        0.6925439834594727,
        2.1444218158721924
      ],
      "min": [
        -0.6542606353759766,
        0.008691619150340557,
        -1.592589259147644
      ],
      "type": "VEC3"
    },
    {
      "bufferView": 2,
      "byteOffset": 786384,
      "componentType": 5126,
      "count": 65532,
      "max": [
        1.0,
        1.0,
        1.0
      ],
      "min": [
        -1.0,
        -1.0,
        -1.0
      ],
      "type": "VEC3"
    },
    {
      "bufferView": 3,
      "componentType": 5126,
      "count": 65532,
      "max": [
        1.0,
        0.9999995827674866,
        1.0,
        1.0
      ],
      "min": [
        -1.0,
        -1.0,
        -0.9999998807907104,
        -1.0
      ],
      "type": "VEC4"
    },
    {
      "bufferView": 1,
      "componentType": 5126,
      "count": 65532,
      "max": [
        0.9823383688926697,
        0.9965893030166626
      ],
      "min": [
        0.002043900080025196,
        0.002043884713202715
      ],
      "type": "VEC2"
    },
    {
      "bufferView": 1,
      "byteOffset": 524256,
      "componentType": 5126,
      "count": 65532,
      "max": [
        0.9823383688926697,
        0.9965893030166626
      ],
      "min": [
        0.002043900080025196,
        0.002043884713202715
      ],
      "type": "VEC2"
    },
    {
      "bufferView": 1,
      "byteOffset": 1048512,
      "componentType": 5126,
      "count": 65532,
      "max": [
        0.9823383688926697,
        0.9965893030166626
      ],
      "min": [
        0.002043900080025196,
        0.002043884713202715
      ],
      "type": "VEC2"
    },
    {
      "bufferView": 1,
      "byteOffset": 1572768,
      "componentType": 5126,
      "count": 65532,
      "max": [
        0.48757246136665344,
        0.8283668756484985
      ],
      "min": [
        0.0,
        0.0
      ],
      "type": "VEC2"
    },
    {
      "bufferView": 1,
      "byteOffset": 2097024,
      "componentType": 5126,
      "count": 65532,
      "max": [
        0.9823383688926697,
        0.9965893030166626
      ],
      "min": [
        0.002043900080025196,
        0.002043884713202715
      ],
      "type": "VEC2"
    },
    {
      "bufferView": 0,
      "componentType": 5125,
      "count": 279321,
      "type": "SCALAR"
    },
    {
      "bufferView": 2,
      "byteOffset": 1572768,
      "componentType": 5126,
      "count": 65532,
      "max": [
        0.6542942523956299,
        0.2287755310535431,
        2.1444218158721924
      ],
      "min": [
        -0.6542942523956299,
        0.09510491788387299,
        1.755336880683899
      ],
      "type": "VEC3"
    },
    {
      "bufferView": 2,
      "byteOffset": 2359152,
      "componentType": 5126,
      "count": 65532,
      "max": [
        1.0,
        0.9999490976333618,
        0.999997079372406
      ],
      "min": [
        -1.0,
        -0.9999767541885376,
        -0.9999977350234985
      ],
      "type": "VEC3"
    },
    {
      "bufferView": 3,
      "byteOffset": 1048512,
      "componentType": 5126,
      "count": 65532,
      "max": [
        1.0,
        0.9999952912330627,
        0.9999871253967285,
        1.0
      ],
      "min": [
        -0.9999980330467224,
        -0.9999943971633911,
        -1.0,
        -1.0
      ],
      "type": "VEC4"
    },
    {
      "bufferView": 1,
      "byteOffset": 2621280,
      "componentType": 5126,
      "count": 65532,
      "max": [
        0.9960803985595703,
        0.23825398087501526
      ],
      "min": [
        0.002042976673692465,
        0.00204992713406682
      ],
      "type": "VEC2"
    },
    {
      "bufferView": 1,
      "byteOffset": 3145536,
      "componentType": 5126,
      "count": 65532,
      "max": [
        0.9960803985595703,
        0.23825398087501526
      ],
      "min": [
        0.002042976673692465,
        0.00204992713406682
      ],
      "type": "VEC2"
    },
    {
      "bufferView": 1,
      "byteOffset": 3669792,
      "componentType": 5126,
      "count": 65532,
      "max": [
        0.9960803985595703,
        0.23825398087501526
      ],
      "min": [
        0.002042976673692465,
        0.00204992713406682
      ],
      "type": "VEC2"
    },
    {
      "bufferView": 1,
      "byteOffset": 4194048,
      "componentType": 5126,
      "count": 65532,
      "max": [
        0.0,
        0.0
      ],
      "min": [
        0.0,
        0.0
      ],
      "type": "VEC2"
    },
    {
      "bufferView": 1,
      "byteOffset": 4718304,
      "componentType": 5126,
      "count": 65532,
      "max": [
        0.9960803985595703,
        0.23825398087501526
      ],
      "min": [
        0.002042976673692465,
        0.00204992713406682
      ],
      "type": "VEC2"
    },
    {
      "bufferView": 0,
      "byteOffset": 1117284,
      "componentType": 5125,
      "count": 260412,
      "type": "SCALAR"
    },
    {
      "bufferView": 2,
      "byteOffset": 3145536,
      "componentType": 5126,
      "count": 65532,
      "max": [
        0.6596458554267883,
        0.48557037115097046,
        2.2046470642089844
      ],
      "min": [
        -0.6592385172843933,
        0.003409825498238206,
        1.168004035949707
      ],
      "type": "VEC3"
    },
    {
      "bufferView": 2,
      "byteOffset": 3931920,
      "componentType": 5126,
      "count": 65532,
      "max": [
        1.0,
        1.0,
        1.0
      ],
      "min": [
        -1.0,
        -1.0,
        -1.0
      ],
      "type": "VEC3"
    },
    {
      "bufferView": 3,
      "byteOffset": 2097024,
      "componentType": 5126,
      "count": 65532,
      "max": [
        1.0,
        0.9999985694885254,
        0.9999993443489075,
        1.0
      ],
      "min": [
        -1.0,
        -0.9999943971633911,
        -0.9999998211860657,
        -1.0
      ],
      "type": "VEC4"
    },
    {
      "bufferView": 1,
      "byteOffset": 5242560,
      "componentType": 5126,
      "count": 65532,
      "max": [
        0.9979574680328369,
        0.9658022522926331
      ],
      "min": [
        0.0020922571420669556,
        0.002044566674157977
      ],
      "type": "VEC2"
    },
    {
      "bufferView": 1,
      "byteOffset": 5766816,
      "componentType": 5126,
      "count": 65532,
      "max": [
        0.9979574680328369,
        0.9658022522926331
      ],
      "min": [
        0.0020922571420669556,
        0.002044566674157977
      ],
      "type": "VEC2"
    },
    {
      "bufferView": 1,
      "byteOffset": 6291072,
      "componentType": 5126,
      "count": 65532,
      "max": [
        0.9979574680328369,
        0.9658022522926331
      ],
      "min": [
        0.0020922571420669556,
        0.002044566674157977
      ],
      "type": "VEC2"
    },
    {
      "bufferView": 1,
      "byteOffset": 6815328,
      "componentType": 5126,
      "count": 65532,
      "max": [
        0.9903287291526794,
        0.995389997959137
      ],
      "min": [
        0.0,
        0.0
      ],
      "type": "VEC2"
    },
    {
      "bufferView": 1,
      "byteOffset": 7339584,
      "componentType": 5126,
      "count": 65532,
      "max": [
        0.9979574680328369,
        0.9658022522926331
      ],
      "min": [
        0.0020922571420669556,
        0.002044566674157977
      ],
      "type": "VEC2"
    },
    {
      "bufferView": 0,
      "byteOffset": 2158932,
      "componentType": 5125,
      "count": 349704,
      "type": "SCALAR"
    },
    {
      "bufferView": 2,
      "byteOffset": 4718304,
      "componentType": 5126,
      "count": 65532,
      "max": [
        0.6580311059951782,
        0.7085017561912537,
        2.119659662246704
      ],
      "min": [
        -0.5260266661643982,
        0.03936367481946945,
        -1.437463402748108
      ],
      "type": "VEC3"
    },
    {
      "bufferView": 2,
      "byteOffset": 5504688,
      "componentType": 5126,
      "count": 65532,
      "max": [
        1.0,
        1.0,
        1.0
      ],
      "min": [
        -1.0,
        -1.0,
        -1.0
      ],
      "type": "VEC3"
    },
    {
      "bufferView": 3,
      "byteOffset": 3145536,
      "componentType": 5126,
      "count": 65532,
      "max": [
        1.0,
        0.9999877214431763,
        0.9999996423721313,
        1.0
      ],
      "min": [
        -0.9999978542327881,
        -0.999997615814209,
        -1.0,
        -1.0
      ],
      "type": "VEC4"
    },
    {
      "bufferView": 1,
      "byteOffset": 7863840,
      "componentType": 5126,
      "count": 65532,
      "max": [
        0.9977251291275024,
        0.9831938743591309
      ],
      "min": [
        0.0020520687103271484,
        0.0020620650611817837
      ],
      "type": "VEC2"
    },
    {
      "bufferView": 1,
      "byteOffset": 8388096,
      "componentType": 5126,
      "count": 65532,
      "max": [
        0.9977251291275024,
        0.9831938743591309
      ],
      "min": [
        0.0020520687103271484,
        0.0020620650611817837
      ],
      "type": "VEC2"
    },
    {
      "bufferView": 1,
      "byteOffset": 8912352,
      "componentType": 5126,
      "count": 65532,
      "max": [
        0.9977251291275024,
        0.9831938743591309
      ],
      "min": [
        0.0020520687103271484,
        0.0020620650611817837
      ],
      "type": "VEC2"
    },
    {
      "bufferView": 1,
      "byteOffset": 9436608,
      "componentType": 5126,
      "count": 65532,
      "max": [
        0.9903287291526794,
        0.995389997959137
      ],
      "min": [
        0.0,
        0.0
      ],
      "type": "VEC2"
    },
    {
      "bufferView": 1,
      "byteOffset": 9960864,
      "componentType": 5126,
      "count": 65532,
      "max": [
        0.9977251291275024,
        0.9831938743591309
      ],
      "min": [
        0.0020520687103271484,
        0.0020620650611817837
      ],
      "type": "VEC2"
    },
    {
      "bufferView": 0,
      "byteOffset": 3557748,
      "componentType": 5125,
      "count": 357774,
      "type": "SCALAR"
    },
    {
      "bufferView": 2,
      "byteOffset": 6291072,
      "componentType": 5126,
      "count": 65532,
      "max": [
        0.5210824608802795,
        0.7085017561912537,
        2.1199886798858643
      ],
      "min": [
        -0.6587046980857849,
        0.0034098257310688496,
        -1.5376418828964233
      ],
      "type": "VEC3"
    },
    {
      "bufferView": 2,
      "byteOffset": 7077456,
      "componentType": 5126,
      "count": 65532,
      "max": [
        1.0,
        1.0,
        1.0
      ],
      "min": [
        -1.0,
        -1.0,
        -1.0
      ],
      "type": "VEC3"
    },
    {
      "bufferView": 3,
      "byteOffset": 4194048,
      "componentType": 5126,
      "count": 65532,
      "max": [
        1.0,
        0.9999997615814209,
        1.0,
        1.0
      ],
      "min": [
        -0.9999997019767761,
        -1.0,
        -1.0,
        -1.0
      ],
      "type": "VEC4"
    },
    {
      "bufferView": 1,
      "byteOffset": 10485120,
      "componentType": 5126,
      "count": 65532,
      "max": [
        0.9972540140151978,
        0.9886276721954346
      ],
      "min": [
        0.012492920272052288,
        0.0020435601472854614
      ],
      "type": "VEC2"
    },
    {
      "bufferView": 1,
      "byteOffset": 11009376,
      "componentType": 5126,
      "count": 65532,
      "max": [
        0.9972540140151978,
        0.9886276721954346
      ],
      "min": [
        0.012492920272052288,
        0.0020435601472854614
      ],
      "type": "VEC2"
    },
    {
      "bufferView": 1,
      "byteOffset": 11533632,
      "componentType": 5126,
      "count": 65532,
      "max": [
        0.9972540140151978,
        0.9886276721954346
      ],
      "min": [
        0.012492920272052288,
        0.0020435601472854614
      ],
      "type": "VEC2"
    },
    {
      "bufferView": 1,
      "byteOffset": 12057888,
      "componentType": 5126,
      "count": 65532,
      "max": [
        0.9253556728363037,
        0.9318933486938477
      ],
      "min": [
        0.0,
        0.0
      ],
      "type": "VEC2"
    },
    {
      "bufferView": 1,
      "byteOffset": 12582144,
      "componentType": 5126,
      "count": 65532,
      "max": [
        0.9972540140151978,
        0.9886276721954346
      ],
      "min": [
        0.012492920272052288,
        0.0020435601472854614
      ],
      "type": "VEC2"
    },
    {
      "bufferView": 0,
      "byteOffset": 4988844,
      "componentType": 5125,
      "count": 354369,
      "type": "SCALAR"
    },
    {
      "bufferView": 2,
      "byteOffset": 7863840,
      "componentType": 5126,
      "count": 65532,
      "max": [
        0.6915954351425171,
        0.7932906150817871,
        0.9594463109970093
      ],
      "min": [
        -0.48648858070373535,
        0.004778598435223103,
        -1.2805540561676025
      ],
      "type": "VEC3"
    },
    {
      "bufferView": 2,
      "byteOffset": 8650224,
      "componentType": 5126,
      "count": 65532,
      "max": [
        1.0,
        1.0,
        1.0
      ],
      "min": [
        -1.0,
        -1.0,
        -1.0
      ],
      "type": "VEC3"
    },
    {
      "bufferView": 3,
      "byteOffset": 5242560,
      "componentType": 5126,
      "count": 65532,
      "max": [
        1.0,
        1.0,
        1.0,
        1.0
      ],
      "min": [
        -0.9999999403953552,
        -1.0,
        -1.0,
        -1.0
      ],
      "type": "VEC4"
    },
    {
      "bufferView": 1,
      "byteOffset": 13106400,
      "componentType": 5126,
      "count": 65532,
      "max": [
        0.9978540539741516,
        0.9919266700744629
      ],
      "min": [
        0.0020455445628613234,
        0.0020430150907486677
      ],
      "type": "VEC2"
    },
    {
      "bufferView": 1,
      "byteOffset": 13630656,
      "componentType": 5126,
      "count": 65532,
      "max": [
        0.9978540539741516,
        0.9919266700744629
      ],
      "min": [
        0.0020455445628613234,
        0.0020430150907486677
      ],
      "type": "VEC2"
    },
    {
      "bufferView": 1,
      "byteOffset": 14154912,
      "componentType": 5126,
      "count": 65532,
      "max": [
        0.9978540539741516,
        0.9919266700744629
      ],
      "min": [
        0.0020455445628613234,
        0.0020430150907486677
      ],
      "type": "VEC2"
    },
    {
      "bufferView": 1,
      "byteOffset": 14679168,
      "componentType": 5126,
      "count": 65532,
      "max": [
        0.706895649433136,
        0.9160962104797363
      ],
      "min": [
        0.0,
        0.0
      ],
      "type": "VEC2"
    },
    {
      "bufferView": 1,
      "byteOffset": 15203424,
      "componentType": 5126,
      "count": 65532,
      "max": [
        0.9978540539741516,
        0.9919266700744629
      ],
      "min": [
        0.0020455445628613234,
        0.0020430150907486677
      ],
      "type": "VEC2"
    },
    {
      "bufferView": 0,
      "byteOffset": 6406320,
      "componentType": 5125,
      "count": 362613,
      "type": "SCALAR"
    },
    {
      "bufferView": 2,
      "byteOffset": 9436608,
      "componentType": 5126,
      "count": 49346,
      "max": [
        0.6909248232841492,
        0.7048848271369934,
        2.1572654247283936
      ],
      "min": [
        -0.6915954351425171,
        -0.000790054036770016,
        -1.4685269594192505
      ],
      "type": "VEC3"
    },
    {
      "bufferView": 2,
      "byteOffset": 10028760,
      "componentType": 5126,
      "count": 49346,
      "max": [
        1.0,
        1.0,
        1.0
      ],
      "min": [
        -1.0,
        -1.0,
        -1.0
      ],
      "type": "VEC3"
    },
    {
      "bufferView": 3,
      "byteOffset": 6291072,
      "componentType": 5126,
      "count": 49346,
      "max": [
        1.0,
        0.9999988079071045,
        0.9999954700469971,
        1.0
      ],
      "min": [
        -0.9999999403953552,
        -1.0,
        -0.9999998211860657,
        -1.0
      ],
      "type": "VEC4"
    },
    {
      "bufferView": 1,
      "byteOffset": 15727680,
      "componentType": 5126,
      "count": 49346,
      "max": [
        0.9669324159622192,
        0.9727529287338257
      ],
      "min": [
        0.0086178258061409,
        0.002042820444330573
      ],
      "type": "VEC2"
    },
    {
      "bufferView": 1,
      "byteOffset": 16122448,
      "componentType": 5126,
      "count": 49346,
      "max": [
        0.9669324159622192,
        0.9727529287338257
      ],
      "min": [
        0.0086178258061409,
        0.002042820444330573
      ],
      "type": "VEC2"
    },
    {
      "bufferView": 1,
      "byteOffset": 16517216,
      "componentType": 5126,
      "count": 49346,
      "max": [
        0.9669324159622192,
        0.9727529287338257
      ],
      "min": [
        0.0086178258061409,
        0.002042820444330573
      ],
      "type": "VEC2"
    },
    {
      "bufferView": 1,
      "byteOffset": 16911984,
      "componentType": 5126,
      "count": 49346,
      "max": [
        0.7187054753303528,
        0.9160962104797363
      ],
      "min": [
        0.0,
        0.0
      ],
      "type": "VEC2"
    },
    {
      "bufferView": 1,
      "byteOffset": 17306752,
      "componentType": 5126,
      "count": 49346,
      "max": [
        0.9669324159622192,
        0.9727529287338257
      ],
      "min": [
        0.0086178258061409,
        0.002042820444330573
      ],
      "type": "VEC2"
    },
    {
      "bufferView": 0,
      "byteOffset": 7856772,
      "componentType": 5125,
      "count": 260943,
      "type": "SCALAR"
    }
  ],
  "asset": {
    "extras": {
      "author": "Redgrund (https://sketchfab.com/redgrund)",
      "license": "CC-BY-4.0 (http://creativecommons.org/licenses/by/4.0/)",
      "source": "https://sketchfab.com/3d-models/mclaren-mcl60-f1-2023-8340e27c325345e4aa92a6a31cc34b1e",
      "title": "McLaren MCL60 F1 2023"
    },
    "generator": "Sketchfab-16.7.0",
    "version": "2.0"
  },
  "bufferViews": [
    {
      "buffer": 0,
      "byteLength": 8900544,
      "name": "floatBufferViews",
      "target": 34963
    },
    {
      "buffer": 0,
      "byteLength": 17701520,
      "byteOffset": 8900544,
      "byteStride": 8,
      "name": "floatBufferViews",
      "target": 34962
    },
    {
      "buffer": 0,
      "byteLength": 10620912,
      "byteOffset": 26602064,
      "byteStride": 12,
      "name": "floatBufferViews",
      "target": 34962
    },
    {
      "buffer": 0,
      "byteLength": 7080608,
      "byteOffset": 37222976,
      "byteStride": 16,
      "name": "floatBufferViews",
      "target": 34962
    }
  ],
  "buffers": [
    {
      "byteLength": 44303584,
      "uri": "scene.bin"
    }
  ],
  "extensionsUsed": [
    "KHR_materials_clearcoat",
    "KHR_materials_specular"
  ],
  "images": [
    {
      "uri": "textures/Material_baseColor.png"
    },
    {
      "uri": "textures/Material_metallicRoughness.png"
    },
    {
      "uri": "textures/Material_normal.png"
    },
    {
      "uri": "textures/Material_clearcoat.png"
    }
  ],
  "materials": [
    {
      "doubleSided": true,
      "extensions": {
        "KHR_materials_clearcoat": {
          "clearcoatFactor": 0.6384781363143202,
          "clearcoatRoughnessFactor": 0.04,
          "clearcoatTexture": {
            "index": 3,
            "texCoord": 3
          }
        },
        "KHR_materials_specular": {
          "specularColorFactor": [
            1.0,
            1.0,
            1.0
          ],
          "specularFactor": 0.4007631261352415
        }
      },
      "name": "Material",
      "normalTexture": {
        "index": 2,
        "texCoord": 2
      },
      "pbrMetallicRoughness": {
        "baseColorTexture": {
          "index": 0
        },
        "metallicRoughnessTexture": {
          "index": 1,
          "texCoord": 1
        }
      }
    }
  ],
  "meshes": [
    {
      "name": "Object_0",
      "primitives": [
        {
          "attributes": {
            "NORMAL": 1,
            "POSITION": 0,
            "TANGENT": 2,
            "TEXCOORD_0": 3,
            "TEXCOORD_1": 4,
            "TEXCOORD_2": 5,
            "TEXCOORD_3": 6,
            "TEXCOORD_4": 7
          },
          "indices": 8,
          "material": 0,
          "mode": 4
        }
      ]
    },
    {
      "name": "Object_1",
      "primitives": [
        {
          "attributes": {
            "NORMAL": 10,
            "POSITION": 9,
            "TANGENT": 11,
            "TEXCOORD_0": 12,
            "TEXCOORD_1": 13,
            "TEXCOORD_2": 14,
            "TEXCOORD_3": 15,
            "TEXCOORD_4": 16
          },
          "indices": 17,
          "material": 0,
          "mode": 4
        }
      ]
    },
    {
      "name": "Object_2",
      "primitives": [
        {
          "attributes": {
            "NORMAL": 19,
            "POSITION": 18,
            "TANGENT": 20,
            "TEXCOORD_0": 21,
            "TEXCOORD_1": 22,
            "TEXCOORD_2": 23,
            "TEXCOORD_3": 24,
            "TEXCOORD_4": 25
          },
          "indices": 26,
          "material": 0,
          "mode": 4
        }
      ]
    },
    {
      "name": "Object_3",
      "primitives": [
        {
          "attributes": {
            "NORMAL": 28,
            "POSITION": 27,
            "TANGENT": 29,
            "TEXCOORD_0": 30,
            "TEXCOORD_1": 31,
            "TEXCOORD_2": 32,
            "TEXCOORD_3": 33,
            "TEXCOORD_4": 34
          },
          "indices": 35,
          "material": 0,
          "mode": 4
        }
      ]
    },
    {
      "name": "Object_4",
      "primitives": [
        {
          "attributes": {
            "NORMAL": 37,
            "POSITION": 36,
            "TANGENT": 38,
            "TEXCOORD_0": 39,
            "TEXCOORD_1": 40,
            "TEXCOORD_2": 41,
            "TEXCOORD_3": 42,
            "TEXCOORD_4": 43
          },
          "indices": 44,
          "material": 0,
          "mode": 4
        }
      ]
    },
    {
      "name": "Object_5",
      "primitives": [
        {
          "attributes": {
            "NORMAL": 46,
            "POSITION": 45,
            "TANGENT": 47,
            "TEXCOORD_0": 48,
            "TEXCOORD_1": 49,
            "TEXCOORD_2": 50,
            "TEXCOORD_3": 51,
            "TEXCOORD_4": 52
          },
          "indices": 53,
          "material": 0,
          "mode": 4
        }
      ]
    },
    {
      "name": "Object_6",
      "primitives": [
        {
          "attributes": {
            "NORMAL": 55,
            "POSITION": 54,
            "TANGENT": 56,
            "TEXCOORD_0": 57,
            "TEXCOORD_1": 58,
            "TEXCOORD_2": 59,
            "TEXCOORD_3": 60,
            "TEXCOORD_4": 61
          },
          "indices": 62,
          "material": 0,
          "mode": 4
        }
      ]
    }
  ],
  "nodes": [
    {
      "children": [
        1
      ],
      "matrix": [
        1.0,
        0.0,
        0.0,
        0.0,
        0.0,
        2.220446049250313e-16,
        -1.0,
        0.0,
        0.0,
        1.0,
        2.220446049250313e-16,
        0.0,
        0.0,
        0.0,
        0.0,
        1.0
      ],
      "name": "Sketchfab_model"
    },
    {
      "children": [
        2
      ],
      "name": "root"
    },
    {
      "children": [
        3
      ],
      "matrix": [
        1.0,
        0.0,
        0.0,
        0.0,
        0.0,
        2.220446049250313e-16,
        1.0,
        0.0,
        0.0,
        -1.0,
        2.220446049250313e-16,
        0.0,
        0.0,
        0.0,
        0.0,
        1.0
      ],
      "name": "GLTF_SceneRootNode"
    },
    {
      "children": [
        4,
        5,
        6,
        7,
        8,
        9,
        10
      ],
      "name": "Body.001_0"
    },
    {
      "mesh": 0,
      "name": "Object_4"
    },
    {
      "mesh": 1,
      "name": "Object_5"
    },
    {
      "mesh": 2,
      "name": "Object_6"
    },
    {
      "mesh": 3,
      "name": "Object_7"
    },
    {
      "mesh": 4,
      "name": "Object_8"
    },
    {
      "mesh": 5,
      "name": "Object_9"
    },
    {
      "mesh": 6,
      "name": "Object_10"
    }
  ],
  "samplers": [
    {
      "magFilter": 9729,
      "minFilter": 9987,
      "wrapS": 10497,
      "wrapT": 10497
    }
  ],
  "scene": 0,
  "scenes": [
    {
      "name": "Sketchfab_Scene",
      "nodes": [
        0
      ]
    }
  ],
  "textures": [
    {
      "sampler": 0,
      "source": 0
    },
    {
      "sampler": 0,
      "source": 1
    },
    {
      "sampler": 0,
      "source": 2
    },
    {
      "sampler": 0,
      "source": 3
    }
  ]
}
